<mxfile host="app.diagrams.net" agent="Mozilla/5.0 (Windows NT 10.0; Win64; x64) AppleWebKit/537.36 (KHTML, like Gecko) Chrome/129.0.0.0 Safari/537.36" version="24.7.17">
  <diagram name="Page-1" id="eEPfoV1EEF3tn9h3JWw6">
    <mxGraphModel dx="1833" dy="2238" grid="1" gridSize="10" guides="1" tooltips="1" connect="1" arrows="1" fold="1" page="1" pageScale="1" pageWidth="850" pageHeight="1100" math="0" shadow="0">
      <root>
        <mxCell id="0" />
        <mxCell id="1" parent="0" />
        <mxCell id="WgRBeZ9gFVKyx4dr9Oa8-1" value="&lt;font color=&quot;#b266ff&quot;&gt;3-tier&lt;/font&gt;" style="points=[[0,0],[0.25,0],[0.5,0],[0.75,0],[1,0],[1,0.25],[1,0.5],[1,0.75],[1,1],[0.75,1],[0.5,1],[0.25,1],[0,1],[0,0.75],[0,0.5],[0,0.25]];outlineConnect=0;gradientColor=none;html=1;whiteSpace=wrap;fontSize=12;fontStyle=0;container=1;pointerEvents=0;collapsible=0;recursiveResize=0;shape=mxgraph.aws4.group;grIcon=mxgraph.aws4.group_vpc2;strokeColor=#8C4FFF;fillColor=none;verticalAlign=top;align=left;spacingLeft=30;fontColor=#AAB7B8;dashed=0;" parent="1" vertex="1">
          <mxGeometry x="140" y="150" width="550" height="390" as="geometry" />
        </mxCell>
        <mxCell id="WgRBeZ9gFVKyx4dr9Oa8-2" value="" style="fillColor=none;strokeColor=#147EBA;dashed=1;verticalAlign=top;fontStyle=0;fontColor=#147EBA;whiteSpace=wrap;html=1;" parent="WgRBeZ9gFVKyx4dr9Oa8-1" vertex="1">
          <mxGeometry x="60" y="70" width="440" height="100" as="geometry" />
        </mxCell>
        <mxCell id="WgRBeZ9gFVKyx4dr9Oa8-3" value="" style="fillColor=none;strokeColor=#147EBA;dashed=1;verticalAlign=top;fontStyle=0;fontColor=#147EBA;whiteSpace=wrap;html=1;" parent="WgRBeZ9gFVKyx4dr9Oa8-1" vertex="1">
          <mxGeometry x="60" y="240" width="440" height="100" as="geometry" />
        </mxCell>
        <mxCell id="WgRBeZ9gFVKyx4dr9Oa8-4" value="az-2" style="text;html=1;align=center;verticalAlign=middle;resizable=0;points=[];autosize=1;strokeColor=none;fillColor=none;" parent="WgRBeZ9gFVKyx4dr9Oa8-1" vertex="1">
          <mxGeometry x="60" y="240" width="50" height="30" as="geometry" />
        </mxCell>
        <mxCell id="WgRBeZ9gFVKyx4dr9Oa8-5" value="az-1" style="text;html=1;align=center;verticalAlign=middle;resizable=0;points=[];autosize=1;strokeColor=none;fillColor=none;" parent="WgRBeZ9gFVKyx4dr9Oa8-1" vertex="1">
          <mxGeometry x="60" y="70" width="50" height="30" as="geometry" />
        </mxCell>
        <mxCell id="WgRBeZ9gFVKyx4dr9Oa8-6" value="Public subnet" style="points=[[0,0],[0.25,0],[0.5,0],[0.75,0],[1,0],[1,0.25],[1,0.5],[1,0.75],[1,1],[0.75,1],[0.5,1],[0.25,1],[0,1],[0,0.75],[0,0.5],[0,0.25]];outlineConnect=0;gradientColor=none;html=1;whiteSpace=wrap;fontSize=12;fontStyle=0;container=1;pointerEvents=0;collapsible=0;recursiveResize=0;shape=mxgraph.aws4.group;grIcon=mxgraph.aws4.group_security_group;grStroke=0;strokeColor=#00A4A6;fillColor=#E6F6F7;verticalAlign=top;align=left;spacingLeft=30;fontColor=#147EBA;dashed=0;" parent="WgRBeZ9gFVKyx4dr9Oa8-1" vertex="1">
          <mxGeometry x="110" y="90" width="130" height="240" as="geometry" />
        </mxCell>
        <mxCell id="WgRBeZ9gFVKyx4dr9Oa8-20" value="" style="sketch=0;outlineConnect=0;fontColor=#232F3E;gradientColor=none;fillColor=#8C4FFF;strokeColor=none;dashed=0;verticalLabelPosition=bottom;verticalAlign=top;align=center;html=1;fontSize=12;fontStyle=0;aspect=fixed;pointerEvents=1;shape=mxgraph.aws4.application_load_balancer;" parent="WgRBeZ9gFVKyx4dr9Oa8-6" vertex="1">
          <mxGeometry x="40" y="30" width="50" height="50" as="geometry" />
        </mxCell>
        <mxCell id="WgRBeZ9gFVKyx4dr9Oa8-58" style="edgeStyle=orthogonalEdgeStyle;rounded=0;orthogonalLoop=1;jettySize=auto;html=1;flowAnimation=1;" parent="WgRBeZ9gFVKyx4dr9Oa8-6" source="WgRBeZ9gFVKyx4dr9Oa8-24" target="WgRBeZ9gFVKyx4dr9Oa8-34" edge="1">
          <mxGeometry relative="1" as="geometry" />
        </mxCell>
        <mxCell id="WgRBeZ9gFVKyx4dr9Oa8-24" value="" style="sketch=0;outlineConnect=0;fontColor=#232F3E;gradientColor=none;fillColor=#8C4FFF;strokeColor=none;dashed=0;verticalLabelPosition=bottom;verticalAlign=top;align=center;html=1;fontSize=12;fontStyle=0;aspect=fixed;pointerEvents=1;shape=mxgraph.aws4.route_table;" parent="WgRBeZ9gFVKyx4dr9Oa8-6" vertex="1">
          <mxGeometry x="-10" y="107" width="26.68" height="26" as="geometry" />
        </mxCell>
        <mxCell id="WgRBeZ9gFVKyx4dr9Oa8-34" value="" style="sketch=0;outlineConnect=0;fontColor=#232F3E;gradientColor=none;fillColor=#8C4FFF;strokeColor=none;dashed=0;verticalLabelPosition=bottom;verticalAlign=top;align=center;html=1;fontSize=12;fontStyle=0;aspect=fixed;pointerEvents=1;shape=mxgraph.aws4.nat_gateway;" parent="WgRBeZ9gFVKyx4dr9Oa8-6" vertex="1">
          <mxGeometry x="40" y="140" width="54" height="54" as="geometry" />
        </mxCell>
        <mxCell id="WgRBeZ9gFVKyx4dr9Oa8-65" value="" style="sketch=0;aspect=fixed;pointerEvents=1;shadow=0;dashed=0;html=1;strokeColor=none;labelPosition=center;verticalLabelPosition=bottom;verticalAlign=top;align=center;fillColor=#00188D;shape=mxgraph.mscae.enterprise.lock" parent="WgRBeZ9gFVKyx4dr9Oa8-6" vertex="1">
          <mxGeometry x="57.19999999999999" y="30" width="15.6" height="20" as="geometry" />
        </mxCell>
        <mxCell id="WgRBeZ9gFVKyx4dr9Oa8-7" value="Private subnet" style="points=[[0,0],[0.25,0],[0.5,0],[0.75,0],[1,0],[1,0.25],[1,0.5],[1,0.75],[1,1],[0.75,1],[0.5,1],[0.25,1],[0,1],[0,0.75],[0,0.5],[0,0.25]];outlineConnect=0;gradientColor=none;html=1;whiteSpace=wrap;fontSize=12;fontStyle=0;container=1;pointerEvents=0;collapsible=0;recursiveResize=0;shape=mxgraph.aws4.group;grIcon=mxgraph.aws4.group_security_group;grStroke=0;strokeColor=#00A4A6;fillColor=#E6F6F7;verticalAlign=top;align=left;spacingLeft=30;fontColor=#147EBA;dashed=0;" parent="WgRBeZ9gFVKyx4dr9Oa8-1" vertex="1">
          <mxGeometry x="300" y="90" width="180" height="240" as="geometry" />
        </mxCell>
        <mxCell id="WgRBeZ9gFVKyx4dr9Oa8-10" value="" style="outlineConnect=0;dashed=0;verticalLabelPosition=bottom;verticalAlign=top;align=center;html=1;shape=mxgraph.aws3.rds_db_instance_read_replica;fillColor=#2E73B8;gradientColor=none;" parent="WgRBeZ9gFVKyx4dr9Oa8-7" vertex="1">
          <mxGeometry x="110" y="150" width="49.5" height="66" as="geometry" />
        </mxCell>
        <mxCell id="WgRBeZ9gFVKyx4dr9Oa8-17" value="" style="sketch=0;points=[[0,0,0],[0.25,0,0],[0.5,0,0],[0.75,0,0],[1,0,0],[0,1,0],[0.25,1,0],[0.5,1,0],[0.75,1,0],[1,1,0],[0,0.25,0],[0,0.5,0],[0,0.75,0],[1,0.25,0],[1,0.5,0],[1,0.75,0]];outlineConnect=0;fontColor=#232F3E;fillColor=#ED7100;strokeColor=#ffffff;dashed=0;verticalLabelPosition=bottom;verticalAlign=top;align=center;html=1;fontSize=12;fontStyle=0;aspect=fixed;shape=mxgraph.aws4.resourceIcon;resIcon=mxgraph.aws4.ec2;" parent="WgRBeZ9gFVKyx4dr9Oa8-7" vertex="1">
          <mxGeometry x="10" y="150" width="48" height="48" as="geometry" />
        </mxCell>
        <mxCell id="WgRBeZ9gFVKyx4dr9Oa8-18" value="&lt;div&gt;frontend&lt;/div&gt;" style="text;html=1;align=center;verticalAlign=middle;resizable=0;points=[];autosize=1;strokeColor=none;fillColor=none;" parent="WgRBeZ9gFVKyx4dr9Oa8-7" vertex="1">
          <mxGeometry x="-1" y="198" width="70" height="30" as="geometry" />
        </mxCell>
        <mxCell id="WgRBeZ9gFVKyx4dr9Oa8-66" value="" style="sketch=0;aspect=fixed;pointerEvents=1;shadow=0;dashed=0;html=1;strokeColor=none;labelPosition=center;verticalLabelPosition=bottom;verticalAlign=top;align=center;fillColor=#00188D;shape=mxgraph.mscae.enterprise.lock" parent="WgRBeZ9gFVKyx4dr9Oa8-7" vertex="1">
          <mxGeometry x="10" y="150" width="15.6" height="20" as="geometry" />
        </mxCell>
        <mxCell id="WgRBeZ9gFVKyx4dr9Oa8-8" value="" style="outlineConnect=0;dashed=0;verticalLabelPosition=bottom;verticalAlign=top;align=center;html=1;shape=mxgraph.aws3.rds_db_instance;fillColor=#2E73B8;gradientColor=none;" parent="WgRBeZ9gFVKyx4dr9Oa8-1" vertex="1">
          <mxGeometry x="410" y="130" width="49.5" height="66" as="geometry" />
        </mxCell>
        <mxCell id="WgRBeZ9gFVKyx4dr9Oa8-11" value="" style="sketch=0;points=[[0,0,0],[0.25,0,0],[0.5,0,0],[0.75,0,0],[1,0,0],[0,1,0],[0.25,1,0],[0.5,1,0],[0.75,1,0],[1,1,0],[0,0.25,0],[0,0.5,0],[0,0.75,0],[1,0.25,0],[1,0.5,0],[1,0.75,0]];outlineConnect=0;fontColor=#232F3E;fillColor=#ED7100;strokeColor=#ffffff;dashed=0;verticalLabelPosition=bottom;verticalAlign=top;align=center;html=1;fontSize=12;fontStyle=0;aspect=fixed;shape=mxgraph.aws4.resourceIcon;resIcon=mxgraph.aws4.ec2;" parent="WgRBeZ9gFVKyx4dr9Oa8-1" vertex="1">
          <mxGeometry x="310" y="139" width="48" height="48" as="geometry" />
        </mxCell>
        <mxCell id="WgRBeZ9gFVKyx4dr9Oa8-12" value="" style="endArrow=classic;html=1;rounded=0;exitX=0.5;exitY=0.98;exitDx=0;exitDy=0;exitPerimeter=0;flowAnimation=1;fillColor=#a20025;strokeColor=#6F0000;" parent="WgRBeZ9gFVKyx4dr9Oa8-1" source="WgRBeZ9gFVKyx4dr9Oa8-8" edge="1">
          <mxGeometry width="50" height="50" relative="1" as="geometry">
            <mxPoint x="260" y="200" as="sourcePoint" />
            <mxPoint x="435" y="240" as="targetPoint" />
          </mxGeometry>
        </mxCell>
        <mxCell id="WgRBeZ9gFVKyx4dr9Oa8-16" style="edgeStyle=orthogonalEdgeStyle;rounded=0;orthogonalLoop=1;jettySize=auto;html=1;exitX=1;exitY=0.5;exitDx=0;exitDy=0;exitPerimeter=0;entryX=0;entryY=0.5;entryDx=0;entryDy=0;entryPerimeter=0;flowAnimation=1;fillColor=#a20025;strokeColor=#6F0000;" parent="WgRBeZ9gFVKyx4dr9Oa8-1" source="WgRBeZ9gFVKyx4dr9Oa8-11" target="WgRBeZ9gFVKyx4dr9Oa8-8" edge="1">
          <mxGeometry relative="1" as="geometry" />
        </mxCell>
        <mxCell id="WgRBeZ9gFVKyx4dr9Oa8-13" value="backend&lt;div&gt;&lt;br&gt;&lt;/div&gt;" style="text;html=1;align=center;verticalAlign=middle;resizable=0;points=[];autosize=1;strokeColor=none;fillColor=none;" parent="WgRBeZ9gFVKyx4dr9Oa8-1" vertex="1">
          <mxGeometry x="299" y="120" width="70" height="40" as="geometry" />
        </mxCell>
        <mxCell id="WgRBeZ9gFVKyx4dr9Oa8-19" style="edgeStyle=orthogonalEdgeStyle;rounded=0;orthogonalLoop=1;jettySize=auto;html=1;exitX=0.5;exitY=0;exitDx=0;exitDy=0;exitPerimeter=0;entryX=0.5;entryY=1;entryDx=0;entryDy=0;entryPerimeter=0;flowAnimation=1;fillColor=#a20025;strokeColor=#6F0000;" parent="WgRBeZ9gFVKyx4dr9Oa8-1" source="WgRBeZ9gFVKyx4dr9Oa8-17" target="WgRBeZ9gFVKyx4dr9Oa8-11" edge="1">
          <mxGeometry relative="1" as="geometry" />
        </mxCell>
        <mxCell id="WgRBeZ9gFVKyx4dr9Oa8-22" value="" style="sketch=0;outlineConnect=0;fontColor=#232F3E;gradientColor=none;fillColor=#8C4FFF;strokeColor=none;dashed=0;verticalLabelPosition=bottom;verticalAlign=top;align=center;html=1;fontSize=12;fontStyle=0;aspect=fixed;pointerEvents=1;shape=mxgraph.aws4.route_table;" parent="WgRBeZ9gFVKyx4dr9Oa8-1" vertex="1">
          <mxGeometry x="290" y="197" width="26.68" height="26" as="geometry" />
        </mxCell>
        <mxCell id="WgRBeZ9gFVKyx4dr9Oa8-36" style="edgeStyle=orthogonalEdgeStyle;rounded=0;orthogonalLoop=1;jettySize=auto;html=1;flowAnimation=1;" parent="WgRBeZ9gFVKyx4dr9Oa8-1" source="WgRBeZ9gFVKyx4dr9Oa8-34" target="WgRBeZ9gFVKyx4dr9Oa8-22" edge="1">
          <mxGeometry relative="1" as="geometry" />
        </mxCell>
        <mxCell id="WgRBeZ9gFVKyx4dr9Oa8-37" value="" style="sketch=0;outlineConnect=0;fontColor=#232F3E;gradientColor=none;fillColor=#8C4FFF;strokeColor=none;dashed=0;verticalLabelPosition=bottom;verticalAlign=top;align=center;html=1;fontSize=12;fontStyle=0;aspect=fixed;pointerEvents=1;shape=mxgraph.aws4.flow_logs;" parent="WgRBeZ9gFVKyx4dr9Oa8-1" vertex="1">
          <mxGeometry x="470" y="-30" width="50" height="50" as="geometry" />
        </mxCell>
        <mxCell id="WgRBeZ9gFVKyx4dr9Oa8-38" style="edgeStyle=orthogonalEdgeStyle;rounded=0;orthogonalLoop=1;jettySize=auto;html=1;flowAnimation=1;fillColor=#a20025;strokeColor=#6F0000;" parent="WgRBeZ9gFVKyx4dr9Oa8-1" source="WgRBeZ9gFVKyx4dr9Oa8-20" edge="1">
          <mxGeometry relative="1" as="geometry">
            <mxPoint x="210" y="150" as="sourcePoint" />
            <mxPoint x="315" y="270" as="targetPoint" />
            <Array as="points">
              <mxPoint x="260" y="150" />
              <mxPoint x="260" y="270" />
            </Array>
          </mxGeometry>
        </mxCell>
        <mxCell id="WgRBeZ9gFVKyx4dr9Oa8-68" value="" style="sketch=0;aspect=fixed;pointerEvents=1;shadow=0;dashed=0;html=1;strokeColor=#6F0000;labelPosition=center;verticalLabelPosition=bottom;verticalAlign=top;align=center;fillColor=#a20025;shape=mxgraph.mscae.enterprise.lock;fontColor=#ffffff;" parent="WgRBeZ9gFVKyx4dr9Oa8-1" vertex="1">
          <mxGeometry x="410" y="140" width="15.6" height="20" as="geometry" />
        </mxCell>
        <mxCell id="WgRBeZ9gFVKyx4dr9Oa8-67" value="" style="sketch=0;aspect=fixed;pointerEvents=1;shadow=0;dashed=0;html=1;strokeColor=none;labelPosition=center;verticalLabelPosition=bottom;verticalAlign=top;align=center;fillColor=#00188D;shape=mxgraph.mscae.enterprise.lock" parent="WgRBeZ9gFVKyx4dr9Oa8-1" vertex="1">
          <mxGeometry x="310" y="139" width="15.6" height="20" as="geometry" />
        </mxCell>
        <mxCell id="WgRBeZ9gFVKyx4dr9Oa8-21" value="" style="sketch=0;outlineConnect=0;fontColor=#232F3E;gradientColor=none;fillColor=#8C4FFF;strokeColor=none;dashed=0;verticalLabelPosition=bottom;verticalAlign=top;align=center;html=1;fontSize=12;fontStyle=0;aspect=fixed;pointerEvents=1;shape=mxgraph.aws4.internet_gateway;" parent="1" vertex="1">
          <mxGeometry x="120" y="190" width="40" height="40" as="geometry" />
        </mxCell>
        <mxCell id="WgRBeZ9gFVKyx4dr9Oa8-32" value="" style="image;aspect=fixed;perimeter=ellipsePerimeter;html=1;align=center;shadow=0;dashed=0;spacingTop=3;image=img/lib/active_directory/internet_cloud.svg;" parent="1" vertex="1">
          <mxGeometry x="50" y="-90" width="50" height="31.5" as="geometry" />
        </mxCell>
        <mxCell id="WgRBeZ9gFVKyx4dr9Oa8-35" style="edgeStyle=orthogonalEdgeStyle;rounded=0;orthogonalLoop=1;jettySize=auto;html=1;flowAnimation=1;" parent="1" target="WgRBeZ9gFVKyx4dr9Oa8-21" edge="1">
          <mxGeometry relative="1" as="geometry">
            <mxPoint x="240" y="360" as="sourcePoint" />
            <Array as="points">
              <mxPoint x="180" y="360" />
              <mxPoint x="180" y="210" />
            </Array>
          </mxGeometry>
        </mxCell>
        <mxCell id="WgRBeZ9gFVKyx4dr9Oa8-51" style="edgeStyle=orthogonalEdgeStyle;rounded=0;orthogonalLoop=1;jettySize=auto;html=1;flowAnimation=1;fillColor=#a20025;strokeColor=#6F0000;" parent="1" source="WgRBeZ9gFVKyx4dr9Oa8-39" target="WgRBeZ9gFVKyx4dr9Oa8-20" edge="1">
          <mxGeometry relative="1" as="geometry">
            <mxPoint x="315" y="330" as="targetPoint" />
            <Array as="points">
              <mxPoint x="130" y="125" />
              <mxPoint x="130" y="350" />
              <mxPoint x="315" y="350" />
            </Array>
          </mxGeometry>
        </mxCell>
        <mxCell id="WgRBeZ9gFVKyx4dr9Oa8-44" style="edgeStyle=orthogonalEdgeStyle;rounded=0;orthogonalLoop=1;jettySize=auto;html=1;entryX=0.5;entryY=0;entryDx=0;entryDy=0;flowAnimation=1;fillColor=#a20025;strokeColor=#6F0000;" parent="1" source="WgRBeZ9gFVKyx4dr9Oa8-41" target="WgRBeZ9gFVKyx4dr9Oa8-32" edge="1">
          <mxGeometry relative="1" as="geometry" />
        </mxCell>
        <mxCell id="WgRBeZ9gFVKyx4dr9Oa8-41" value="" style="sketch=0;pointerEvents=1;shadow=0;dashed=0;html=1;strokeColor=#b85450;fillColor=#f8cecc;aspect=fixed;labelPosition=center;verticalLabelPosition=bottom;verticalAlign=top;align=center;outlineConnect=0;shape=mxgraph.vvd.web_browser;" parent="1" vertex="1">
          <mxGeometry x="420" y="-280" width="210" height="149.1" as="geometry" />
        </mxCell>
        <mxCell id="WgRBeZ9gFVKyx4dr9Oa8-45" value="&lt;font color=&quot;#9933ff&quot;&gt;expesne.niharika.com&lt;/font&gt;" style="text;html=1;align=center;verticalAlign=middle;resizable=0;points=[];autosize=1;strokeColor=none;fillColor=none;" parent="1" vertex="1">
          <mxGeometry x="425" y="-280" width="140" height="30" as="geometry" />
        </mxCell>
        <mxCell id="WgRBeZ9gFVKyx4dr9Oa8-49" value="" style="shape=mxgraph.signs.people.woman_2;html=1;pointerEvents=1;fillColor=#dae8fc;strokeColor=#6c8ebf;verticalLabelPosition=bottom;verticalAlign=top;align=center;" parent="1" vertex="1">
          <mxGeometry x="500" y="-117.5" width="45" height="59" as="geometry" />
        </mxCell>
        <mxCell id="WgRBeZ9gFVKyx4dr9Oa8-50" value="&lt;font color=&quot;#9999ff&quot;&gt;Mabbu&lt;/font&gt;" style="text;html=1;align=center;verticalAlign=middle;resizable=0;points=[];autosize=1;strokeColor=none;fillColor=none;" parent="1" vertex="1">
          <mxGeometry x="495" y="-62" width="60" height="30" as="geometry" />
        </mxCell>
        <mxCell id="WgRBeZ9gFVKyx4dr9Oa8-55" style="edgeStyle=orthogonalEdgeStyle;rounded=0;orthogonalLoop=1;jettySize=auto;html=1;flowAnimation=1;fillColor=#a20025;strokeColor=#6F0000;" parent="1" source="WgRBeZ9gFVKyx4dr9Oa8-46" edge="1">
          <mxGeometry relative="1" as="geometry">
            <mxPoint x="75" y="100" as="targetPoint" />
            <Array as="points">
              <mxPoint x="75" y="80" />
              <mxPoint x="75" y="80" />
            </Array>
          </mxGeometry>
        </mxCell>
        <mxCell id="WgRBeZ9gFVKyx4dr9Oa8-46" value="" style="outlineConnect=0;dashed=0;verticalLabelPosition=bottom;verticalAlign=top;align=center;html=1;shape=mxgraph.aws3.route_53;fillColor=#F58536;gradientColor=none;" parent="1" vertex="1">
          <mxGeometry x="39.75" width="70.5" height="50" as="geometry" />
        </mxCell>
        <mxCell id="WgRBeZ9gFVKyx4dr9Oa8-54" value="" style="edgeStyle=orthogonalEdgeStyle;rounded=0;orthogonalLoop=1;jettySize=auto;html=1;flowAnimation=1;entryX=0;entryY=0.5;entryDx=0;entryDy=0;" parent="1" source="WgRBeZ9gFVKyx4dr9Oa8-21" target="WgRBeZ9gFVKyx4dr9Oa8-32" edge="1">
          <mxGeometry relative="1" as="geometry">
            <mxPoint x="20" y="-80" as="targetPoint" />
            <mxPoint x="120" y="210" as="sourcePoint" />
            <Array as="points">
              <mxPoint x="10" y="210" />
              <mxPoint x="10" y="-74" />
            </Array>
          </mxGeometry>
        </mxCell>
        <mxCell id="WgRBeZ9gFVKyx4dr9Oa8-39" value="" style="outlineConnect=0;dashed=0;verticalLabelPosition=bottom;verticalAlign=top;align=center;html=1;shape=mxgraph.aws3.cloudfront;fillColor=#F58536;gradientColor=none;" parent="1" vertex="1">
          <mxGeometry x="51.75" y="100" width="46.5" height="50" as="geometry" />
        </mxCell>
        <mxCell id="WgRBeZ9gFVKyx4dr9Oa8-59" style="edgeStyle=orthogonalEdgeStyle;rounded=0;orthogonalLoop=1;jettySize=auto;html=1;entryX=0.5;entryY=0;entryDx=0;entryDy=0;entryPerimeter=0;fillColor=#a20025;strokeColor=#6F0000;flowAnimation=1;" parent="1" source="WgRBeZ9gFVKyx4dr9Oa8-32" target="WgRBeZ9gFVKyx4dr9Oa8-46" edge="1">
          <mxGeometry relative="1" as="geometry" />
        </mxCell>
      </root>
    </mxGraphModel>
  </diagram>
</mxfile>
